<?xml version="1.0" encoding="UTF-8" standalone="no"?>
<!-- Created with Inkscape (http://www.inkscape.org/) -->

<svg
   xmlns:dc="http://purl.org/dc/elements/1.1/"
   xmlns:cc="http://creativecommons.org/ns#"
   xmlns:rdf="http://www.w3.org/1999/02/22-rdf-syntax-ns#"
   xmlns:svg="http://www.w3.org/2000/svg"
   xmlns="http://www.w3.org/2000/svg"
   xmlns:sodipodi="http://sodipodi.sourceforge.net/DTD/sodipodi-0.dtd"
   xmlns:inkscape="http://www.inkscape.org/namespaces/inkscape"
   width="68.262466mm"
   height="71.555824mm"
   viewBox="0 0 68.262466 71.555824"
   version="1.1"
   id="svg3728"
   inkscape:version="0.92.4 (5da689c313, 2019-01-14)"
   sodipodi:docname="enemigo1.svg">
  <defs
     id="defs3722" />
  <sodipodi:namedview
     id="base"
     pagecolor="#ffffff"
     bordercolor="#666666"
     borderopacity="1.0"
     inkscape:pageopacity="0.0"
     inkscape:pageshadow="2"
     inkscape:zoom="0.7"
     inkscape:cx="-157.91784"
     inkscape:cy="178.98165"
     inkscape:document-units="mm"
     inkscape:current-layer="layer1"
     showgrid="false"
     fit-margin-top="0"
     fit-margin-left="0"
     fit-margin-right="0"
     fit-margin-bottom="0"
     inkscape:window-width="1920"
     inkscape:window-height="1017"
     inkscape:window-x="-8"
     inkscape:window-y="-8"
     inkscape:window-maximized="1" />
  <metadata
     id="metadata3725">
    <rdf:RDF>
      <cc:Work
         rdf:about="">
        <dc:format>image/svg+xml</dc:format>
        <dc:type
           rdf:resource="http://purl.org/dc/dcmitype/StillImage" />
        <dc:title></dc:title>
      </cc:Work>
    </rdf:RDF>
  </metadata>
  <g
     inkscape:label="Capa 1"
     inkscape:groupmode="layer"
     id="layer1"
     transform="translate(-15.025503,-16.86048)">
    <ellipse
       id="path3730"
       cx="50.837795"
       cy="52.449402"
       rx="28.159225"
       ry="30.238094"
       style="stroke-width:0.26458332" />
    <path
       style="fill:none;stroke:#000000;stroke-width:0.26458332px;stroke-linecap:butt;stroke-linejoin:miter;stroke-opacity:1"
       d="m 78.619047,44.133928 c 0.62996,0.125992 1.25992,0.251984 1.889879,0.377976 0.125992,0.125992 0.21861,0.298291 0.377979,0.377976 0.112689,0.05635 0.251984,0 0.377976,0"
       id="path3734"
       inkscape:connector-curvature="0" />
    <path
       style="fill:none;stroke:#000000;stroke-width:0.26458332px;stroke-linecap:butt;stroke-linejoin:miter;stroke-opacity:1"
       d="m 79.374999,56.985119 c 1.893205,0.946602 2.077207,1.038603 3.023809,1.511903"
       id="path3736"
       inkscape:connector-curvature="0" />
    <path
       style="fill:none;stroke:#000000;stroke-width:0.26458332px;stroke-linecap:butt;stroke-linejoin:miter;stroke-opacity:1"
       d="m 75.973214,67.190476 c 2.718454,1.631072 1.920153,1.000049 4.913691,3.779761 2.356945,2.188594 2.267855,1.218621 2.267855,2.645833"
       id="path3738"
       inkscape:connector-curvature="0" />
    <path
       style="fill:none;stroke:#000000;stroke-width:0.26458332px;stroke-linecap:butt;stroke-linejoin:miter;stroke-opacity:1"
       d="m 71.815475,73.61607 c -0.125992,0.755952 -0.251984,1.511906 -0.377976,2.267858"
       id="path3740"
       inkscape:connector-curvature="0" />
    <path
       style="fill:none;stroke:#000000;stroke-width:0.26458332px;stroke-linecap:butt;stroke-linejoin:miter;stroke-opacity:1"
       d="m 55.562499,79.663689 c 0,1.889881 0,3.779763 0,5.669642"
       id="path3742"
       inkscape:connector-curvature="0" />
    <path
       style="fill:none;stroke:#000000;stroke-width:0.26458332px;stroke-linecap:butt;stroke-linejoin:miter;stroke-opacity:1"
       d="m 43.089284,79.285713 c -3.577724,6.26102 1.267077,-1.773246 -5.291666,6.803572 -0.513406,0.671375 -0.755952,1.511903 -1.133928,2.267858"
       id="path3744"
       inkscape:connector-curvature="0" />
    <path
       style="fill:none;stroke:#000000;stroke-width:0.26458332px;stroke-linecap:butt;stroke-linejoin:miter;stroke-opacity:1"
       d="m 29.482142,73.238094 c -2.427327,1.591025 -4.766915,3.303935 -7.181547,4.913691"
       id="path3746"
       inkscape:connector-curvature="0" />
    <path
       style="fill:none;stroke:#000000;stroke-width:0.26458332px;stroke-linecap:butt;stroke-linejoin:miter;stroke-opacity:1"
       d="m 25.324405,63.788689 c -3.275794,0 -6.551588,0 -9.827381,0"
       id="path3748"
       inkscape:connector-curvature="0" />
    <path
       style="fill:none;stroke:#000000;stroke-width:0.26458332px;stroke-linecap:butt;stroke-linejoin:miter;stroke-opacity:1"
       d="M 23.434524,53.205356 C 20.116436,51.214504 23.010631,52.835264 18.898809,50.937498 18.13142,50.583319 17.432761,50.070839 16.630952,49.803571 14.66279,49.147518 16.07356,50.380108 15.119047,49.425595"
       id="path3750"
       inkscape:connector-curvature="0" />
    <path
       style="fill:none;stroke:#000000;stroke-width:0.26458332px;stroke-linecap:butt;stroke-linejoin:miter;stroke-opacity:1"
       d="M 23.8125,44.133928 C 21.758868,41.258844 22.40732,42.457496 21.544642,40.732143"
       id="path3754"
       inkscape:connector-curvature="0" />
    <path
       style="fill:none;stroke:#000000;stroke-width:0.26458332px;stroke-linecap:butt;stroke-linejoin:miter;stroke-opacity:1"
       d="m 23.8125,44.133928 c 1.007936,-3.023809 2.661893,-5.904666 3.023809,-9.07143 0.167447,-1.465162 -0.982518,-2.781331 -1.511904,-4.157736 C 25.22327,30.641813 25.115464,30.37419 24.946428,30.14881 24.732613,29.863722 24.44246,29.64484 24.190476,29.392856"
       id="path3756"
       inkscape:connector-curvature="0" />
    <path
       style="fill:none;stroke:#000000;stroke-width:0.26458332px;stroke-linecap:butt;stroke-linejoin:miter;stroke-opacity:1"
       d="M 35.151785,33.172619 C 34.450723,31.069433 32.971806,26.720559 32.505951,24.857142 30.768665,17.907998 32.992406,24.8046 31.75,21.077381"
       id="path3758"
       inkscape:connector-curvature="0" />
    <path
       style="fill:none;stroke:#000000;stroke-width:0.26458332px;stroke-linecap:butt;stroke-linejoin:miter;stroke-opacity:1"
       d="m 40.443451,25.991071 c 0.820481,-2.871682 0.990103,-3.700453 2.267858,-6.803572 0.321802,-0.781519 0.755951,-1.511904 1.13393,-2.267856"
       id="path3760"
       inkscape:connector-curvature="0" />
    <path
       style="fill:none;stroke:#000000;stroke-width:0.26458332px;stroke-linecap:butt;stroke-linejoin:miter;stroke-opacity:1"
       d="m 51.40476,24.10119 c 1.112314,-3.336935 0.399595,-1.555138 2.267858,-5.291667 0.125992,-0.251984 0.208941,-0.53057 0.377975,-0.755952 0.213818,-0.285087 0.503971,-0.503968 0.755955,-0.755952"
       id="path3762"
       inkscape:connector-curvature="0" />
    <path
       style="fill:none;stroke:#000000;stroke-width:0.26458332px;stroke-linecap:butt;stroke-linejoin:miter;stroke-opacity:1"
       d="m 59.720238,27.880953 c 3.547113,-0.709425 0.465149,0.227507 4.535713,-2.645835 1.200377,-0.847324 2.519841,-1.511904 3.779763,-2.267856"
       id="path3764"
       inkscape:connector-curvature="0" />
    <path
       style="fill:none;stroke:#000000;stroke-width:0.26458332px;stroke-linecap:butt;stroke-linejoin:miter;stroke-opacity:1"
       d="m 68.791666,34.306547 c 0.377976,-0.503968 0.68848,-1.066456 1.133927,-1.511904 0.08909,-0.08909 0.321633,0.112689 0.377979,0 0.537797,-1.075597 -0.0397,-1.681046 1.133927,-2.267857 0.464635,-0.232318 1.022691,-0.203258 1.511906,-0.377976 5.966918,-2.131044 1.810655,-1.01963 5.291667,-1.889882"
       id="path3766"
       inkscape:connector-curvature="0" />
    <path
       style="fill:none;stroke:#000000;stroke-width:0.26458332px;stroke-linecap:butt;stroke-linejoin:miter;stroke-opacity:1"
       d="m 68.791666,34.306547 c 1.133927,1.511905 1.766234,3.588816 3.401785,4.535715 1.095806,0.634415 2.533983,-0.151472 3.779763,-0.377976 3.570835,-0.649243 3.795387,-0.837798 6.425594,-1.889882"
       id="path3772"
       inkscape:connector-curvature="0" />
  </g>
</svg>
